<svg class="svg-icon" width="100%" height="100%" viewBox="0 0 128 128" version="1.1" xmlns="http://www.w3.org/2000/svg" xmlns:xlink="http://www.w3.org/1999/xlink" xml:space="preserve" xmlns:serif="http://www.serif.com/" style="fill-rule:evenodd;clip-rule:evenodd;stroke-linejoin:round;stroke-miterlimit:2;">
  <g class="svg-shape">
    <path d="M101.39,86.21c-14.25-5.91-22.34-4.3-28.47-2.5c-6.5,1.91-12.31,8.58-12.31,8.58s-1.93-0.58-5.04-0.51 c-1.49,0.04-2.67,0.28-3.54,0.54c2.64-5.99,4.51-12.08,7.57-18.76c1.95-0.81,4.63-1.86,6.35-2.23c2.96-0.64,6.45-0.84,6.45-0.84 c0.82,0.64,2,1.39,3.69,2.23c9.56,4.78,21.5,2.16,27.35-0.16c8.13-3.23,20.21-12.95,20.21-13.69s-5.5-3.38-13.32-5.71 c-7.82-2.33-18.27-2.44-26.21,0.95c-7.28,3.11-10.67,8.58-12.54,11.86c0,0-2.9,0.46-5,0.82c-1.56,0.27-2.96,0.64-4.07,0.99 c0.22-0.4,0.45-0.81,0.68-1.21C67.77,58.61,72.83,52.5,77,48.2c5.87,0.55,17.89,0.35,27.62-8.46 c15.64-14.15,18.46-35.92,18.07-36.35S97.35,3.34,84.54,14.91c-12.19,11.01-11.97,25.4-11.4,30.69c-3.97,3.71-8.81,9.17-14.2,17.12 c-0.04-2.12-0.29-4.73-0.29-4.73s7.19-6.73,7.72-17.18c0.42-8.24-0.46-15.89-5-24.14c-3.56-6.43-6.53-8.03-7.06-7.93 c-0.93,0.19-5.33,7.06-8.03,13.63c-2.13,5.17-4.26,18.38-0.45,26.52s8.22,9.68,8.22,9.68s0.54,2.37,0.48,5.55 c-0.02,1.36-0.13,4.51-0.18,5.98c-3.57,6.32-5.96,12.07-8.23,17.22c-0.34-0.99-0.73-1.96-1.11-2.65c-1.16-2.11-1.59-2.85-1.59-2.85 s2.57-15.99-1.8-29.17C36.45,37,27.57,31.08,19.33,27.59C11.09,24.1,6.54,24.11,5.8,24.95c-1.08,1.23,1.37,4.33,1.59,11.31 c0.17,5.71,1.16,25.05,6.87,34.98s13.63,12.37,16.17,13.21c2.54,0.85,8.03,0.95,8.03,0.95s2.33,2.01,3.17,4.86 c0.39,1.31,0.78,2.92,1.09,4.27c-1.95,3.71-4.17,7-7.21,9.86c-5.01,4.71-13.09,7.94-13.09,7.94s-6.47-0.15-6.91,0.15 c-0.44,0.29-1.73,3.53,0.69,7.51c2,3.29,5.05,4.12,6.08,4.26c1.03,0.15,2.94-4.27,3.68-4.86c0.74-0.59,9.43-3.93,15.6-10.74 c2.83-3.13,5.02-6.16,6.81-9.17c1.65-1.01,4.07-2.17,6.72-2.31c2.64-0.15,4.94,1.12,4.94,1.12s2.22,9.16,12.15,13 c12.5,4.83,25.83,0.61,31.64-1.4c5.81-2,19.83-8.42,19.94-10.22C123.86,97.87,115.66,92.13,101.39,86.21z" fill="#095609" />
  </g>
</svg>
