<?xml version="1.0" encoding="UTF-8" standalone="no"?>
<!-- Generator: Adobe Illustrator 18.0.0, SVG Export Plug-In . SVG Version: 6.00 Build 0)  -->

<svg
   xmlns:dc="http://purl.org/dc/elements/1.1/"
   xmlns:cc="http://creativecommons.org/ns#"
   xmlns:rdf="http://www.w3.org/1999/02/22-rdf-syntax-ns#"
   xmlns:svg="http://www.w3.org/2000/svg"
   xmlns="http://www.w3.org/2000/svg"
   xmlns:sodipodi="http://sodipodi.sourceforge.net/DTD/sodipodi-0.dtd"
   xmlns:inkscape="http://www.inkscape.org/namespaces/inkscape"
   version="1.1"
   id="Layer_1"
   x="0px"
   y="0px"
   viewBox="0 0 458.56292 659.64234"
   enable-background="new 0 0 200 200"
   xml:space="preserve"
   sodipodi:docname="logo.svg"
   inkscape:version="0.92.3 (2405546, 2018-03-11)"
   width="458.56293"
   height="659.64233"><metadata
   id="metadata39"><rdf:RDF><cc:Work
       rdf:about=""><dc:format>image/svg+xml</dc:format><dc:type
         rdf:resource="http://purl.org/dc/dcmitype/StillImage" /><dc:title /></cc:Work></rdf:RDF></metadata><defs
   id="defs37" /><sodipodi:namedview
   pagecolor="#ffffff"
   bordercolor="#666666"
   borderopacity="1"
   objecttolerance="10"
   gridtolerance="10"
   guidetolerance="10"
   inkscape:pageopacity="0"
   inkscape:pageshadow="2"
   inkscape:window-width="1920"
   inkscape:window-height="1019"
   id="namedview35"
   showgrid="false"
   inkscape:zoom="0.75041707"
   inkscape:cx="129.92627"
   inkscape:cy="416.22401"
   inkscape:window-x="1920"
   inkscape:window-y="32"
   inkscape:window-maximized="1"
   inkscape:current-layer="layer3"
   fit-margin-top="0"
   fit-margin-left="0"
   fit-margin-right="0"
   fit-margin-bottom="0"
   inkscape:pagecheckerboard="true" />
<g
   inkscape:groupmode="layer"
   id="layer1"
   inkscape:label="BACKGROUND"
   style="display:none"
   sodipodi:insensitive="true"
   transform="translate(334.47525,512.4454)"><path
     id="XMLID_1_"
     d="M 180.81889,191.68951 H 36.528638 c -12.938308,0 -23.485842,-9.94349 -23.485842,-22.14085 V 33.521674 c 0,-12.197353 10.547534,-22.140847 23.485842,-22.140847 H 180.95953 c 12.93831,0 23.48584,9.943494 23.48584,22.140847 V 169.68124 c -0.14063,12.06478 -10.68817,22.00827 -23.62648,22.00827 z"
     inkscape:connector-curvature="0"
     style="fill:#dc332d;stroke-width:1.36547494" /></g><g
   inkscape:groupmode="layer"
   id="layer3"
   inkscape:label="LOGO"
   transform="translate(334.47525,512.4454)"
   style="opacity:1"><g
     id="Scala_Icon"
     transform="matrix(2.7499331,0,0,2.7499331,-455.56864,-311.56471)"
     style="">
	
	
	
</g><g
     transform="matrix(7.2787765,0,0,5.2494876,-833.07144,-663.84889)"
     id="logo"
     style=""
     inkscape:export-xdpi="26.796759"
     inkscape:export-ydpi="26.796759">
		<g
   id="g24"
   style="opacity:0.6"
   transform="matrix(1,0,0,1.1528296,0,-23.612172)">
			<path
   d="m 68.5,87.4 c 0,0 62.9,6.3 62.9,16.8 V 79 c 0,0 0,-10.5 -62.9,-16.8 V 72 Z"
   id="path20"
   inkscape:connector-curvature="0"
   style="fill:#ddff55" />
			<path
   d="m 68.5,121 c 0,0 62.9,6.3 62.9,16.8 v -25.2 c 0,0 0,-10.5 -62.9,-16.8 z"
   id="path22"
   inkscape:connector-curvature="0"
   style="fill:#ddff55" />
		</g>
		<path
   d="M 131.5,28.841574 V 57.89288 c 0,0 0,12.104711 -62.9,19.367537 V 48.093828 c -0.1,0 62.9,-7.147543 62.9,-19.252254"
   id="path26"
   inkscape:connector-curvature="0"
   style="fill:#88aa00;stroke-width:1.073699" />
		<path
   d="m 68.5,86.828903 c 0,0 62.9,-7.262827 62.9,-19.367537 v 29.051305 c 0,0 0,12.104709 -62.9,19.367539 z"
   id="path28"
   inkscape:connector-curvature="0"
   style="fill:#fffff3;fill-opacity:1;stroke-width:1.073699" />
		<path
   d="m 68.5,154.5 v -29.05131 c 0,0 62.9,-7.26282 62.9,-19.36753 v 29.0513 c 0.1,0.11529 0.1,12.10471 -62.9,19.36754"
   id="path30"
   inkscape:connector-curvature="0"
   style="fill:#88aa00;stroke-width:1.073699" />
	
</g><rect
     style="fill:none;fill-opacity:0.2232143"
     id="rect825"
     width="690.28278"
     height="690.28278"
     x="-451.07599"
     y="-525.09698"
     inkscape:export-xdpi="26.796759"
     inkscape:export-ydpi="26.796759" /></g>
</svg>